<?xml version="1.0" standalone="no"?><!DOCTYPE svg PUBLIC "-//W3C//DTD SVG 1.1//EN" "http://www.w3.org/Graphics/SVG/1.1/DTD/svg11.dtd"><svg t="1516701979080" class="icon" style="" viewBox="0 0 1024 1024" version="1.1" xmlns="http://www.w3.org/2000/svg" p-id="1101" xmlns:xlink="http://www.w3.org/1999/xlink" width="200" height="200"><defs><style type="text/css"></style></defs><path d="M563.1 861H460.9c-70.4 0-128-57.6-128-128V162.8c0-70.4 57.6-128 128-128h102.2c70.4 0 128 57.6 128 128V733c0 70.4-57.6 128-128 128z" fill="#76C49A" p-id="1102"></path><path d="M332.9 498h358.2v187.5H332.9z" fill="#4E98A0" p-id="1103"></path><path d="M563.1 871H460.9c-76.1 0-138-61.9-138-138V162.8c0-76.1 61.9-138 138-138h102.2c76.1 0 138 61.9 138 138V733c0 76.1-61.9 138-138 138zM460.9 44.8c-65.1 0-118 52.9-118 118V733c0 65.1 52.9 118 118 118h102.2c65.1 0 118-52.9 118-118V162.8c0-65.1-52.9-118-118-118H460.9z" fill="#322E63" p-id="1104"></path><path d="M520.7 871h-17.4c-59 0-107-48-107-107V131.8c0-59 48-107 107-107h17.4c59 0 107 48 107 107V764c0 59-48 107-107 107zM503.3 44.8c-48 0-87 39-87 87V764c0 48 39 87 87 87h17.4c48 0 87-39 87-87V131.8c0-48-39-87-87-87h-17.4z" fill="#322E63" p-id="1105"></path><path d="M502 34.8h20v798.9h-20z" fill="#322E63" p-id="1106"></path><path d="M722.3 986.1H301.7c-6.4 0-12.3-6-13.2-13.5l-42.9-361.4c-1.3-10.8 4-19.5 11.8-19.5h509.4c7.8 0 13 8.8 11.8 19.5l-42.9 361.4c-1 7.5-7 13.5-13.4 13.5z" fill="#FFB850" p-id="1107"></path><path d="M722.3 996.1H301.7c-11.5 0-21.7-9.8-23.2-22.4l-42.9-361.4c-1.1-9.2 1.3-17.9 6.5-23.7 4-4.5 9.4-7 15.2-7h509.4c5.8 0 11.2 2.5 15.2 7 5.2 5.9 7.6 14.5 6.5 23.7l-42.9 361.4c-1.5 12.6-11.7 22.4-23.2 22.4z m44.3-394.5H257.3c-0.7 0.4-2.4 3.4-1.8 8.4l42.9 361.4c0.3 2.9 2.5 4.7 3.3 4.7h420.6c0.8 0 3-1.8 3.3-4.7L768.5 610c0.6-4.9-1.1-8-1.9-8.4z" fill="#322E63" p-id="1108"></path><path d="M807.4 682.1H216.6c-6.6 0-12-5.4-12-12v-89.9c0-6.6 5.4-12 12-12h590.7c6.6 0 12 5.4 12 12v89.9c0.1 6.6-5.3 12-11.9 12z" fill="#FFB850" p-id="1109"></path><path d="M807.4 692.1H216.6c-12.1 0-22-9.9-22-22v-89.9c0-12.1 9.9-22 22-22h590.7c12.1 0 22 9.9 22 22v89.9c0.1 12.2-9.8 22-21.9 22zM216.6 578.2c-1.1 0-2 0.9-2 2v89.9c0 1.1 0.9 2 2 2h590.7c1.1 0 2-0.9 2-2v-89.9c0-1.1-0.9-2-2-2H216.6z" fill="#322E63" p-id="1110"></path><path d="M732.5 233h-41.4c-5.5 0-10-4.5-10-10s4.5-10 10-10h41.4c5.5 0 10 4.5 10 10s-4.5 10-10 10zM732.5 464.2h-41.4c-5.5 0-10-4.5-10-10s4.5-10 10-10h41.4c5.5 0 10 4.5 10 10s-4.5 10-10 10zM332.9 329h-41.4c-5.5 0-10-4.5-10-10s4.5-10 10-10h41.4c5.5 0 10 4.5 10 10s-4.5 10-10 10zM406.3 185.1h-41.4c-5.5 0-10-4.5-10-10s4.5-10 10-10h41.4c5.5 0 10 4.5 10 10s-4.5 10-10 10zM553.4 366.6H512c-5.5 0-10-4.5-10-10s4.5-10 10-10h41.4c5.5 0 10 4.5 10 10s-4.5 10-10 10z" fill="#322E63" p-id="1111"></path></svg>